<?xml version="1.0" encoding="UTF-8" standalone="no"?><!DOCTYPE svg PUBLIC "-//W3C//DTD SVG 1.1//EN" "http://www.w3.org/Graphics/SVG/1.1/DTD/svg11.dtd"><svg width="100%" height="100%" viewBox="0 0 138 26" version="1.1" xmlns="http://www.w3.org/2000/svg" xmlns:xlink="http://www.w3.org/1999/xlink" xml:space="preserve" xmlns:serif="http://www.serif.com/" style="fill-rule:evenodd;clip-rule:evenodd;stroke-linecap:round;stroke-linejoin:round;"><g><path d="M67,8c-1.308,-1.282 -3.068,-2 -4.899,-2c-3.84,0 -7,3.16 -7,7c0,3.84 3.16,7 7,7c1.831,0 3.591,-0.718 4.899,-2m7,-8.7l11,-7.3l11,7.3l0,7.4l-11,7.3l-11,-7.3l0,-7.4Zm0,0l11,7.4l11,-7.4m0,7.4l-11,-7.4l-11,7.4m11,-14.7l0,7.3m0,7.4l0,7.3m19,-18l5,0c3.84,0 7,3.16 7,7c0,3.84 -3.16,7 -7,7l-5,0l0,-14Zm28,0l-9,0l0,14l9,0m-9,-7l6,0" style="fill:none;fill-rule:nonzero;stroke:#fff;stroke-width:2.3px;"/><path d="M3,14l6,0c2.194,0 4,-1.806 4,-4c0,-2.194 -1.806,-4 -4,-4l-6,0l0,14m26,-14l-9,0l0,14l9,0m-9,-7l6,0m11,7l0,-14l11,14l0,-14" style="fill:none;fill-rule:nonzero;stroke:#fff;stroke-width:2.3px;"/></g></svg>